<?xml version="1.0" standalone="no"?>
<!DOCTYPE svg PUBLIC "-//W3C//DTD SVG 20010904//EN"
 "http://www.w3.org/TR/2001/REC-SVG-20010904/DTD/svg10.dtd">
<svg version="1.0" xmlns="http://www.w3.org/2000/svg"
 width="842.000000pt" height="842.000000pt" viewBox="0 0 842.000000 842.000000"
 preserveAspectRatio="xMidYMid meet">
<metadata>
Created by potrace 1.14, written by Peter Selinger 2001-2017
</metadata>
<g transform="translate(0.000000,842.000000) scale(0.100000,-0.100000)"
fill="#000000" stroke="none">
<path d="M1379 6363 c-1 -10 -1 -4356 0 -4363 1 -3 880 -5 1953 -5 l1953 1 3
382 2 382 -267 1 c-148 1 -271 1 -275 0 -16 -2 -76 -3 -293 -2 -126 0 -237 0
-245 0 -42 0 -1427 0 -1440 0 -8 0 -116 0 -240 0 -124 -1 -236 0 -250 1 -14 1
-52 2 -85 3 l-60 2 0 1413 c0 931 3 1416 10 1421 6 4 708 7 1560 7 853 -1
1557 0 1565 2 13 3 15 53 15 380 l0 377 -1953 3 c-1073 1 -1952 -1 -1953 -5z"/>
<path d="M2725 4540 l-30 -5 0 -312 c0 -171 4 -315 8 -319 4 -4 549 -8 1212
-8 1064 -1 1205 1 1206 14 6 120 2 630 -6 631 -56 3 -2368 3 -2390 -1z"/>
<path d="M6261 3209 c-121 -32 -254 -109 -316 -181 -107 -125 -155 -221 -181
-363 -13 -74 -7 -222 12 -287 3 -9 7 -26 9 -39 3 -12 24 -61 47 -108 75 -152
238 -290 395 -336 360 -103 739 87 854 428 25 74 27 84 35 167 7 73 7 71 0
120 -3 19 -8 54 -11 77 -16 115 -91 249 -194 351 -40 39 -79 72 -86 72 -7 0
-15 4 -17 8 -4 11 -119 65 -168 80 -64 20 -94 24 -200 27 -81 3 -122 -1 -179
-16z"/>
</g>
</svg>
